HIERARCHY
ROOT pelvis
{
  OFFSET 0.000000000 0.000000000 0.000000000
  CHANNELS 6 Xposition Yposition Zposition Zrotation Yrotation Xrotation
  JOINT Spine
  {
    OFFSET 0.000000000 7.098910000 -4.732610000
    CHANNELS 3 Zrotation Yrotation Xrotation
    JOINT Spine1
    {
      OFFSET 0.000000000 9.321421820 -1.643618918
      CHANNELS 3 Zrotation Yrotation Xrotation
      JOINT Spine2
      {
        OFFSET 0.000000000 9.429201273 -0.824953336
        CHANNELS 3 Zrotation Yrotation Xrotation
        JOINT Spine3
        {
          OFFSET 0.000000000 9.465219566 -0.000009457
          CHANNELS 3 Zrotation Yrotation Xrotation
          JOINT Neck
          {
            OFFSET 0.000000000 24.846202406 3.549435011
            CHANNELS 3 Zrotation Yrotation Xrotation
            JOINT Head
            {
              OFFSET 0.000000000 12.816978830 2.259967009
              CHANNELS 3 Zrotation Yrotation Xrotation
              End Site
              {
                OFFSET 0.0 5.0 0.0
              }
            }
          }
          JOINT RightShoulder
          {
            OFFSET -3.199490000 17.277204535 5.332462492
            CHANNELS 3 Zrotation Yrotation Xrotation
            JOINT RightArm
            {
              OFFSET -15.890800000 -0.000005505 0.000000000
              CHANNELS 3 Zrotation Yrotation Xrotation
              JOINT RightForeArm
              {
                OFFSET -29.543600000 -0.000010234 0.000000000
                CHANNELS 3 Zrotation Yrotation Xrotation
                JOINT RightHand
                {
                  OFFSET -23.265200000 -0.000008059 0.000000000
                  CHANNELS 3 Zrotation Yrotation Xrotation
                  JOINT RightHandEnd
                  {
                    OFFSET -6.961150000 -0.000002411 0.000000000
                    CHANNELS 3 Zrotation Yrotation Xrotation
                    End Site
                    {
                      OFFSET 0.0 5.0 0.0
                    }
                  }
                  JOINT RightHandThumb1
                  {
                    OFFSET -2.784459357 -1.856306242 4.640771642
                    CHANNELS 3 Zrotation Yrotation Xrotation
                    End Site
                    {
                      OFFSET 0.0 5.0 0.0
                    }
                  }
                }
              }
            }
          }
          JOINT LeftShoulder
          {
            OFFSET 3.199490000 17.277204535 5.332462492
            CHANNELS 3 Zrotation Yrotation Xrotation
            JOINT LeftArm
            {
              OFFSET 15.890800000 0.000000000 0.000000000
              CHANNELS 3 Zrotation Yrotation Xrotation
              JOINT LeftForeArm
              {
                OFFSET 29.543600000 0.000000000 0.000000000
                CHANNELS 3 Zrotation Yrotation Xrotation
                JOINT LeftHand
                {
                  OFFSET 23.265200000 0.000000000 0.000000000
                  CHANNELS 3 Zrotation Yrotation Xrotation
                  JOINT LeftHandEnd
                  {
                    OFFSET 6.961150000 0.000000000 0.000000000
                    CHANNELS 3 Zrotation Yrotation Xrotation
                    End Site
                    {
                      OFFSET 0.0 5.0 0.0
                    }
                  }
                  JOINT LeftHandThumb1
                  {
                    OFFSET 2.784460000 -1.856305278 4.640771642
                    CHANNELS 3 Zrotation Yrotation Xrotation
                    End Site
                    {
                      OFFSET 0.0 5.0 0.0
                    }
                  }
                }
              }
            }
          }
        }
      }
    }
  }
  JOINT RightUpLeg
  {
    OFFSET -9.491820000 -2.772890000 0.000000000
    CHANNELS 3 Zrotation Yrotation Xrotation
    JOINT RightLeg
    {
      OFFSET 0.000000000 -41.211800000 0.000000000
      CHANNELS 3 Zrotation Yrotation Xrotation
      JOINT RightFoot
      {
        OFFSET -0.000000000 -45.609100000 0.000000000
        CHANNELS 3 Zrotation Yrotation Xrotation
        JOINT RightToeBase
        {
          OFFSET -0.000000000 -5.847492523 16.065826618
          CHANNELS 3 Zrotation Yrotation Xrotation
          End Site
          {
            OFFSET 0.0 5.0 0.0
          }
        }
      }
    }
  }
  JOINT LeftUpLeg
  {
    OFFSET 9.491820000 -2.772890000 0.000000000
    CHANNELS 3 Zrotation Yrotation Xrotation
    JOINT LeftLeg
    {
      OFFSET 0.000000000 -41.211800000 0.000000000
      CHANNELS 3 Zrotation Yrotation Xrotation
      JOINT LeftFoot
      {
        OFFSET -0.000000000 -45.609100000 0.000000000
        CHANNELS 3 Zrotation Yrotation Xrotation
        JOINT LeftToeBase
        {
          OFFSET -0.000000000 -5.847492523 16.065826618
          CHANNELS 3 Zrotation Yrotation Xrotation
          End Site
          {
            OFFSET 0.0 5.0 0.0
          }
        }
      }
    }
  }
}
MOTION
Frames: 4
Frame Time: 0.050000000000
-0.012728572 95.966303349 0.078821182 0.202638199 -0.126467755 -7.118637669 -0.089880907 -0.039125389 1.456343964 -0.051644416 -0.048014265 0.232576557 0.729949964 -0.892319290 8.090769474 -0.150805169 -0.163607151 1.670622321 -2.846025368 1.918846366 1.333971353 -1.964309789 1.331476627 -8.807078845 4.669087310 1.039065067 8.996460352 74.460444256 15.330009800 37.010807605 -0.091693014 16.298761078 -0.050484443 -1.807563750 4.946287020 -0.125486610 -0.006245645 -0.007058226 0.018819799 -5.046002037 0.862811229 19.605083675 -7.345386971 -0.036307726 7.923200736 -71.885378564 -13.618167747 37.531960006 0.236640703 -16.814590879 0.008697253 6.788068850 -2.738332789 1.771317237 -0.013566907 0.014917880 0.006611351 -5.124113040 -0.870017393 -19.277732875 -4.785784461 -7.520788329 9.391442789 -0.007277112 -0.058689905 6.526475076 4.031924957 3.332870002 -9.557762183 0.007772024 0.068288199 0.763242252 2.664816511 3.929926728 12.351584951 -0.001477261 -0.015124304 1.862759493 -2.755382369 3.959340055 -8.297186521 -0.000753298 0.051970578 -0.331537945
-0.095796585 95.937943459 0.147485733 0.338707964 -0.074996296 -6.924331325 -0.080043565 -0.032128360 1.467387356 -0.047127872 -0.047355888 0.241081987 0.646055419 -0.924592929 8.061242077 -0.170711030 -0.190883656 1.653263208 -3.075888588 1.977854596 1.158544037 -2.048045170 1.356347987 -8.867504261 4.536965875 1.108056218 8.996992750 74.527043434 15.381004907 37.038201823 -0.036945271 16.193519376 -0.044435034 -1.881463599 5.050914508 -0.017548164 0.000215083 0.006983727 -0.017713279 -5.073306587 0.880123903 19.453044181 -7.367349655 -0.045590422 7.913569554 -71.899590343 -13.494141532 37.159894572 0.263888750 -16.950022402 0.001429937 6.935372110 -2.784978043 1.704654983 0.010474045 0.004895933 0.000863516 -5.081357504 -0.852857912 -19.323531467 -4.857397239 -7.555796537 8.920124514 -0.004871997 -0.059793997 7.133108000 3.962657042 3.344853544 -9.920547427 -0.002158952 0.020987937 0.668414939 2.569547308 3.885797406 12.223735257 -0.024196267 -0.029974383 1.784370546 -2.861394572 3.955676509 -8.228388500 -0.001709421 -0.093186829 -0.345071020
-0.299370242 95.900267363 0.289249420 0.494799743 -0.144646332 -6.788533039 -0.078502460 -0.051911073 1.541596710 -0.030336685 -0.056641220 0.275179141 0.566026724 -0.884954227 8.052249445 -0.211246187 -0.186693994 1.645133312 -3.353811220 2.055580597 0.886767011 -2.151861781 1.435902998 -8.972081709 4.455935002 1.231230653 8.961629093 74.511887684 15.355708932 37.126321576 0.044529641 16.198694784 -0.055749950 -1.783528815 5.130119754 -0.128911563 -0.008758640 -0.002293206 -0.004977034 -5.082140469 0.866715380 19.429423319 -7.388409732 -0.024735201 7.932725397 -71.845553439 -13.373385486 36.766373412 0.342495547 -17.188038676 -0.028939184 7.015555937 -2.939965169 1.552132334 0.015090601 0.004029885 -0.011040924 -5.062168842 -0.850947470 -19.381225272 -4.903366890 -7.562616505 8.262253032 -0.002530018 -0.088822590 8.233777351 3.792538748 3.490967300 -10.517523156 0.009450346 0.018953120 0.748308606 2.504199585 3.877034961 12.145356511 -0.011758484 -0.026780045 1.808405801 -2.943108110 3.994224423 -8.213089854 -0.006170693 -0.081677424 -0.287811480
-0.577688171 95.834898949 0.454723835 0.730078241 -0.328818609 -6.613633857 -0.092870920 -0.089782054 1.608168453 -0.028535460 -0.055923811 0.319110193 0.471014147 -0.831676343 8.104349824 -0.241375907 -0.175366451 1.629015396 -3.665139472 2.190152151 0.514443199 -2.251648040 1.518024786 -9.094616177 4.497609683 1.365572671 8.917108777 74.487301112 15.378688489 37.259634593 -0.082907640 16.138946189 -0.100676788 -1.653835207 5.154495977 -0.315542206 0.000231787 0.002862037 -0.009519132 -5.034247372 0.865122184 19.461750174 -7.451325066 0.010810955 7.949544994 -71.635863350 -13.336931525 36.426459679 0.268333695 -17.413913885 -0.061582073 7.022744756 -3.095800310 1.356270187 -0.008794768 0.007786700 0.007396222 -5.080606116 -0.864522148 -19.319272952 -4.976273648 -7.525861299 7.345972183 0.006725631 -0.090187198 9.773172236 3.569438022 3.667326499 -11.347646842 0.006157743 0.054128151 0.889005014 2.425063452 3.991661761 11.996652955 0.013618568 -0.068431704 1.972003002 -3.131669036 4.058292963 -8.355871313 0.000788782 0.019057723 -0.317271182
